<?xml version="1.0" encoding="utf-8" ?><svg xmlns="http://www.w3.org/2000/svg" xmlns:xlink="http://www.w3.org/1999/xlink" width="1000" height="1000" viewBox="0 0 1000 1000"><path fill="#0F2585" transform="scale(0.763942 0.832639)" d="M354.952 108.066C427.831 107.021 503.006 108.04 576.065 108.051L981.706 107.898L981.631 771.7L981.59 978.391C981.58 1013.19 982.448 1052.42 981.386 1086.8L980.511 1087.34L355.153 1087.14C354.404 1060.67 355.183 1030.06 355.204 1003.32L355.131 844.093L355.2 341.078L355.138 191.791C355.165 165.726 356.015 133.842 354.952 108.066ZM389.307 142.983L389.364 736.476L389.373 949.999C389.348 984.395 389.733 1019.72 389.261 1054.01L936.3 1053.96L946.406 1053.99L946.149 143.064L401.061 142.854L389.307 142.983Z"/><path fill="#0F2585" transform="scale(0.763942 0.832639)" d="M451.966 201.015C473.647 200.823 498.132 200.039 519.557 201.566C631.208 209.525 737.528 303.984 756.753 414.324L841.321 414.284L841.322 448.461C815.247 447.813 787.581 448.383 761.342 448.33C762.128 460.279 762.568 469.322 762.227 481.239C760.204 551.924 729.115 626.566 676.706 674.946C687.717 680.945 705.357 687.297 717.602 688.339C756.207 691.624 779.807 682.96 817.242 702.05C828.864 707.999 839.577 715.577 849.057 724.554C918.874 790.682 911.168 910.738 833.307 967.461C792.501 997.19 758.089 993.411 710.991 993.379C681.545 993.274 652.1 993.388 622.656 993.723C622.547 982.429 622.626 971.134 622.895 959.842L705.23 959.898C727.925 959.912 759.239 961.806 780.505 955.875C815.466 946.123 843.428 916.605 855.401 882.749C871.456 837.353 861.885 784.964 827.088 750.682C812.92 736.694 792.248 725.343 772.128 723.773C764.01 723.139 754.704 723.483 746.419 723.552C709.352 723.78 682.099 719.884 649.642 698.704C639.372 707.447 619.734 718.752 607.925 724.872C574.908 741.983 538.105 752.73 500.782 753.249C484.676 753.473 468.733 753.065 452.442 753.434C451.98 742.891 452.292 730.357 452.288 719.667C464.777 719.758 477.251 719.819 489.738 719.8C538.76 719.724 582.555 702.322 622.908 675.791C586.327 637.545 570.684 587.947 583.173 536.044C599.67 467.48 652.211 421.986 722.156 414.621C711.251 370.177 687.629 329.876 654.178 298.649C607.387 255.182 550.305 232.908 486.481 235.281L486.457 692.642C476.396 692.166 462.793 692.606 452.458 692.622C451.647 649.599 452.422 604.42 452.296 561.181L451.966 201.015ZM633.778 636.069C638.683 642.681 643.427 648.273 648.929 654.427C657.511 646.135 665.462 638.347 672.958 628.917C706.891 586.224 726.624 534.104 727.901 479.456C728.016 474.552 728.126 451.332 726.538 448.367C692.288 452.347 662.235 465.945 640.532 493.569C620.015 519.426 610.58 552.359 614.293 585.158C616.68 603.428 623.357 620.874 633.778 636.069Z"/></svg>